<?xml version="1.0" encoding="UTF-8"?><svg xmlns="http://www.w3.org/2000/svg" xmlns:xlink="http://www.w3.org/1999/xlink" fill-opacity="1" color-rendering="auto" color-interpolation="auto" text-rendering="auto" stroke="black" stroke-linecap="square" width="458" stroke-miterlimit="10" shape-rendering="auto" stroke-opacity="1" fill="black" stroke-dasharray="none" font-weight="normal" stroke-width="1" height="789" font-family="'Dialog'" font-style="normal" stroke-linejoin="miter" font-size="12px" stroke-dashoffset="0" image-rendering="auto">
  <!--Generated by ySVG 2.5-->
  <defs id="genericDefs"/>
  <g>
    <defs id="defs1">
      <clipPath clipPathUnits="userSpaceOnUse" id="clipPath1">
        <path d="M0 0 L458 0 L458 789 L0 789 L0 0 Z"/>
      </clipPath>
      <clipPath clipPathUnits="userSpaceOnUse" id="clipPath2">
        <path d="M70 -15 L528 -15 L528 774 L70 774 L70 -15 Z"/>
      </clipPath>
    </defs>
    <g fill="white" text-rendering="geometricPrecision" shape-rendering="geometricPrecision" transform="translate(-70,15)" stroke="white">
      <rect x="70" width="458" height="789" y="-15" clip-path="url(#clipPath2)" stroke="none"/>
    </g>
    <g fill="rgb(17,138,178)" text-rendering="geometricPrecision" shape-rendering="geometricPrecision" transform="matrix(1,0,0,1,-70,15)" stroke="rgb(17,138,178)">
      <rect x="199.25" y="0" clip-path="url(#clipPath2)" width="133" rx="4" ry="4" height="57" stroke="none"/>
    </g>
    <g stroke-linecap="butt" transform="matrix(1,0,0,1,-70,15)" fill="rgb(48,48,48)" text-rendering="geometricPrecision" shape-rendering="geometricPrecision" stroke="rgb(48,48,48)" stroke-width="2" stroke-miterlimit="1.45">
      <rect x="199.25" y="0" clip-path="url(#clipPath2)" fill="none" width="133" rx="4" ry="4" height="57"/>
      <text x="221.97" font-size="20px" y="35.2" clip-path="url(#clipPath2)" font-family="'Brandon Grotesque Medium'" stroke="none" stroke-width="1" xml:space="preserve">Namespace</text>
    </g>
    <g fill="rgb(17,138,178)" text-rendering="geometricPrecision" shape-rendering="geometricPrecision" transform="matrix(1,0,0,1,-70,15)" stroke="rgb(17,138,178)">
      <rect x="118.25" y="234" clip-path="url(#clipPath2)" width="133" rx="4" ry="4" height="57" stroke="none"/>
    </g>
    <g stroke-linecap="butt" transform="matrix(1,0,0,1,-70,15)" fill="rgb(48,48,48)" text-rendering="geometricPrecision" shape-rendering="geometricPrecision" stroke="rgb(48,48,48)" stroke-width="2" stroke-miterlimit="1.45">
      <rect x="118.25" y="234" clip-path="url(#clipPath2)" fill="none" width="133" rx="4" ry="4" height="57"/>
      <text x="151.35" font-size="20px" y="269.2" clip-path="url(#clipPath2)" font-family="'Brandon Grotesque Medium'" stroke="none" stroke-width="1" xml:space="preserve">Function</text>
    </g>
    <g fill="rgb(17,138,178)" text-rendering="geometricPrecision" shape-rendering="geometricPrecision" transform="matrix(1,0,0,1,-70,15)" stroke="rgb(17,138,178)">
      <rect x="232.5" y="351" clip-path="url(#clipPath2)" width="133" rx="4" ry="4" height="57" stroke="none"/>
    </g>
    <g stroke-linecap="butt" transform="matrix(1,0,0,1,-70,15)" fill="rgb(48,48,48)" text-rendering="geometricPrecision" shape-rendering="geometricPrecision" stroke="rgb(48,48,48)" stroke-width="2" stroke-miterlimit="1.45">
      <rect x="232.5" y="351" clip-path="url(#clipPath2)" fill="none" width="133" rx="4" ry="4" height="57"/>
      <text x="267.39" font-size="20px" y="386.2" clip-path="url(#clipPath2)" font-family="'Brandon Grotesque Medium'" stroke="none" stroke-width="1" xml:space="preserve">Variable</text>
    </g>
    <g fill="rgb(17,138,178)" text-rendering="geometricPrecision" shape-rendering="geometricPrecision" transform="matrix(1,0,0,1,-70,15)" stroke="rgb(17,138,178)">
      <rect x="232.5" y="468" clip-path="url(#clipPath2)" width="133" rx="4" ry="4" height="57" stroke="none"/>
    </g>
    <g stroke-linecap="butt" transform="matrix(1,0,0,1,-70,15)" fill="rgb(48,48,48)" text-rendering="geometricPrecision" shape-rendering="geometricPrecision" stroke="rgb(48,48,48)" stroke-width="2" stroke-miterlimit="1.45">
      <rect x="232.5" y="468" clip-path="url(#clipPath2)" fill="none" width="133" rx="4" ry="4" height="57"/>
      <text x="281.55" font-size="20px" y="503.2" clip-path="url(#clipPath2)" font-family="'Brandon Grotesque Medium'" stroke="none" stroke-width="1" xml:space="preserve">Type</text>
    </g>
    <g fill="rgb(17,138,178)" text-rendering="geometricPrecision" shape-rendering="geometricPrecision" transform="matrix(1,0,0,1,-70,15)" stroke="rgb(17,138,178)">
      <rect x="199.25" y="702" clip-path="url(#clipPath2)" width="133" rx="4" ry="4" height="57" stroke="none"/>
    </g>
    <g stroke-linecap="butt" transform="matrix(1,0,0,1,-70,15)" fill="rgb(48,48,48)" text-rendering="geometricPrecision" shape-rendering="geometricPrecision" stroke="rgb(48,48,48)" stroke-width="2" stroke-miterlimit="1.45">
      <rect x="199.25" y="702" clip-path="url(#clipPath2)" fill="none" width="133" rx="4" ry="4" height="57"/>
      <text x="244.11" font-size="20px" y="737.2" clip-path="url(#clipPath2)" font-family="'Brandon Grotesque Medium'" stroke="none" stroke-width="1" xml:space="preserve">Value</text>
    </g>
    <g fill="rgb(17,138,178)" text-rendering="geometricPrecision" shape-rendering="geometricPrecision" transform="matrix(1,0,0,1,-70,15)" stroke="rgb(17,138,178)">
      <rect x="232.5" y="117" clip-path="url(#clipPath2)" width="133" rx="4" ry="4" height="57" stroke="none"/>
    </g>
    <g stroke-linecap="butt" transform="matrix(1,0,0,1,-70,15)" fill="rgb(48,48,48)" text-rendering="geometricPrecision" shape-rendering="geometricPrecision" stroke="rgb(48,48,48)" stroke-width="2" stroke-miterlimit="1.45">
      <rect x="232.5" y="117" clip-path="url(#clipPath2)" fill="none" width="133" rx="4" ry="4" height="57"/>
      <text x="275.6" font-size="20px" y="152.2" clip-path="url(#clipPath2)" font-family="'Brandon Grotesque Medium'" stroke="none" stroke-width="1" xml:space="preserve">Struct</text>
    </g>
    <g fill="rgb(17,138,178)" text-rendering="geometricPrecision" shape-rendering="geometricPrecision" transform="matrix(1,0,0,1,-70,15)" stroke="rgb(17,138,178)">
      <rect x="85" y="585" clip-path="url(#clipPath2)" width="133" rx="4" ry="4" height="57" stroke="none"/>
    </g>
    <g stroke-linecap="butt" transform="matrix(1,0,0,1,-70,15)" fill="rgb(48,48,48)" text-rendering="geometricPrecision" shape-rendering="geometricPrecision" stroke="rgb(48,48,48)" stroke-width="2" stroke-miterlimit="1.45">
      <rect x="85" y="585" clip-path="url(#clipPath2)" fill="none" width="133" rx="4" ry="4" height="57"/>
      <text x="113.73" font-size="20px" y="620.2" clip-path="url(#clipPath2)" font-family="'Brandon Grotesque Medium'" stroke="none" stroke-width="1" xml:space="preserve">Container</text>
    </g>
    <g fill="rgb(17,138,178)" text-rendering="geometricPrecision" shape-rendering="geometricPrecision" transform="matrix(1,0,0,1,-70,15)" stroke="rgb(17,138,178)">
      <rect x="380" y="585" clip-path="url(#clipPath2)" width="133" rx="4" ry="4" height="57" stroke="none"/>
    </g>
    <g stroke-linecap="butt" transform="matrix(1,0,0,1,-70,15)" fill="rgb(48,48,48)" text-rendering="geometricPrecision" shape-rendering="geometricPrecision" stroke="rgb(48,48,48)" stroke-width="2" stroke-miterlimit="1.45">
      <rect x="380" y="585" clip-path="url(#clipPath2)" fill="none" width="133" rx="4" ry="4" height="57"/>
      <text x="399.22" font-size="20px" y="620.2" clip-path="url(#clipPath2)" font-family="'Brandon Grotesque Medium'" stroke="none" stroke-width="1" xml:space="preserve">UserDefined</text>
      <path fill="none" d="M232.5 57 L232.5 65 L231.875 68.5 L230 71 L226.875 72.5 L222.5 73 L161.5 73 L157.125 73.625 L154 75.5 L152.125 78.625 L151.5 83 L151.5 221.5857" clip-path="url(#clipPath2)"/>
      <path d="M151.5 233.9607 L158.25 220.4607 L144.75 220.4607 Z" clip-path="url(#clipPath2)" stroke="none"/>
      <path fill="none" d="M184.75 291 L184.75 299 L185.375 302.5 L187.25 305 L190.375 306.5 L194.75 307 L255.75 307 L260.125 307.625 L263.25 309.5 L265.125 312.625 L265.75 317 L265.75 338.582" clip-path="url(#clipPath2)"/>
      <path d="M265.75 350.957 L272.5 337.457 L259 337.457 Z" clip-path="url(#clipPath2)" stroke="none"/>
      <path fill="none" d="M299 408 L299 455.5957" clip-path="url(#clipPath2)"/>
      <path d="M299 467.9707 L305.75 454.4707 L292.25 454.4707 Z" clip-path="url(#clipPath2)" stroke="none"/>
      <path fill="none" d="M299 525 L299 689.5818" clip-path="url(#clipPath2)"/>
      <path d="M299 701.9568 L305.75 688.4568 L292.25 688.4568 Z" clip-path="url(#clipPath2)" stroke="none"/>
      <path fill="none" d="M299 57 L299 104.5957" clip-path="url(#clipPath2)"/>
      <path d="M299 116.9707 L305.75 103.4707 L292.25 103.4707 Z" clip-path="url(#clipPath2)" stroke="none"/>
      <path fill="none" d="M265.75 174 L265.75 182 L265.125 185.5 L263.25 188 L260.125 189.5 L255.75 190 L228 190 L223.625 190.625 L220.5 192.5 L218.625 195.625 L218 200 L218 221.582" clip-path="url(#clipPath2)"/>
      <path d="M218 233.957 L224.75 220.457 L211.25 220.457 Z" clip-path="url(#clipPath2)" stroke="none"/>
      <path fill="none" d="M332.25 174 L332.25 338.5818" clip-path="url(#clipPath2)"/>
      <path d="M332.25 350.9568 L339 337.4568 L325.5 337.4568 Z" clip-path="url(#clipPath2)" stroke="none"/>
      <path fill="none" d="M254.6667 525 L254.6667 533 L254.0417 536.5 L252.1667 539 L249.0417 540.5 L244.6667 541 L161.5 541 L157.125 541.625 L154 543.5 L152.125 546.625 L151.5 551 L151.5 572.582" clip-path="url(#clipPath2)"/>
      <path d="M151.5 584.957 L158.25 571.457 L144.75 571.457 Z" clip-path="url(#clipPath2)" stroke="none"/>
      <path fill="none" d="M151.5 642 L151.5 650 L152.125 653.5 L154 656 L157.125 657.5 L161.5 658 L222.5 658 L226.875 658.625 L230 660.5 L231.875 663.625 L232.5 668 L232.5 689.582" clip-path="url(#clipPath2)"/>
      <path d="M232.5 701.957 L239.25 688.457 L225.75 688.457 Z" clip-path="url(#clipPath2)" stroke="none"/>
      <path fill="none" d="M343.3333 525 L343.3333 533 L343.9583 536.5 L345.8333 539 L348.9583 540.5 L353.3333 541 L436.5 541 L440.875 541.625 L444 543.5 L445.875 546.625 L446.5 551 L446.5 572.582" clip-path="url(#clipPath2)"/>
      <path d="M446.5 584.957 L453.25 571.457 L439.75 571.457 Z" clip-path="url(#clipPath2)" stroke="none"/>
    </g>
  </g>
</svg>
